<svg width="24" height="24" viewBox="0 0 24 24" fill="none" xmlns="http://www.w3.org/2000/svg">
<path fill-rule="evenodd" clip-rule="evenodd" d="M11 4.42712C7.13401 4.42712 4 7.56113 4 11.4271C4 15.2931 7.13401 18.4271 11 18.4271C14.866 18.4271 18 15.2931 18 11.4271C18 7.56113 14.866 4.42712 11 4.42712ZM2 11.4271C2 6.45656 6.02944 2.42712 11 2.42712C15.9706 2.42712 20 6.45656 20 11.4271C20 16.3977 15.9706 20.4271 11 20.4271C6.02944 20.4271 2 16.3977 2 11.4271Z" fill="white"/>
<path fill-rule="evenodd" clip-rule="evenodd" d="M15.9433 16.37C16.3338 15.9795 16.967 15.9795 17.3575 16.37L21.7075 20.72C22.098 21.1106 22.098 21.7437 21.7075 22.1343C21.317 22.5248 20.6838 22.5248 20.2933 22.1343L15.9433 17.7843C15.5528 17.3937 15.5528 16.7606 15.9433 16.37Z" fill="white"/>
</svg>
