<svg width="128" height="128" viewBox="0 0 128 128" fill="none" xmlns="http://www.w3.org/2000/svg">
<path d="M85.8663 122.666H42.133C40.533 122.666 39.4663 122.133 38.3997 121.066L6.93301 89.5996C5.86634 89.0663 5.33301 87.4663 5.33301 85.8663V42.133C5.33301 40.533 5.86634 39.4663 6.93301 38.3997L38.3997 6.93301C38.933 5.86634 40.533 5.33301 42.133 5.33301H86.3997C87.9997 5.33301 89.0663 5.86634 90.133 6.93301L121.6 38.3997C122.133 38.933 122.666 40.533 122.666 42.133V86.3997C122.666 87.9997 122.133 89.0663 121.066 90.133L89.5996 121.6C89.0663 122.133 87.4663 122.666 85.8663 122.666ZM44.2663 112H84.2663L112.533 83.733V44.2663L83.733 15.9997H44.2663L15.9997 44.2663V84.2663L44.2663 112Z" fill="#C87A4A"/>
<path d="M63.9997 69.333C60.7997 69.333 58.6663 67.1997 58.6663 63.9997V42.6663C58.6663 39.4663 60.7997 37.333 63.9997 37.333C67.1997 37.333 69.333 39.4663 69.333 42.6663V63.9997C69.333 67.1997 67.1997 69.333 63.9997 69.333Z" fill="#C87A4A"/>
<path d="M63.9997 90.6663C62.3997 90.6663 61.333 90.133 60.2663 89.0663C59.1997 87.9997 58.6663 86.933 58.6663 85.333C58.6663 84.7997 58.6663 83.733 59.1997 83.1997C59.733 82.6663 59.733 82.133 60.2663 81.5997C61.8663 79.9997 63.9997 79.4663 66.133 80.533C66.6663 80.533 66.6663 80.533 67.1997 81.0663C67.1997 81.0663 67.733 81.5997 68.2663 81.5997C68.7997 82.133 69.333 82.6663 69.333 83.1997C69.333 83.733 69.333 84.7997 69.333 85.333C69.333 85.8663 69.333 86.933 68.7997 87.4663C68.2663 87.9996 68.2663 88.533 67.733 89.0663C66.6663 90.133 65.5997 90.6663 63.9997 90.6663Z" fill="#C87A4A"/>
</svg>
