<svg width="24" height="24" viewBox="0 0 24 24" fill="none" xmlns="http://www.w3.org/2000/svg">
<path fill-rule="evenodd" clip-rule="evenodd" d="M5.2 1.82712C5.38885 1.57532 5.68524 1.42712 6 1.42712H18C18.3148 1.42712 18.6111 1.57532 18.8 1.82712L21.8 5.82712C21.9298 6.00022 22 6.21075 22 6.42712V20.4271C22 21.2228 21.6839 21.9858 21.1213 22.5484C20.5587 23.1111 19.7957 23.4271 19 23.4271H5C4.20435 23.4271 3.44129 23.1111 2.87868 22.5484C2.31607 21.9858 2 21.2228 2 20.4271V6.42712C2 6.21075 2.07018 6.00022 2.2 5.82712L5.2 1.82712ZM6.5 3.42712L4 6.76046V20.4271C4 20.6923 4.10536 20.9467 4.29289 21.1342C4.48043 21.3218 4.73478 21.4271 5 21.4271H19C19.2652 21.4271 19.5196 21.3218 19.7071 21.1342C19.8946 20.9467 20 20.6923 20 20.4271V6.76046L17.5 3.42712H6.5Z" fill="white"/>
<path fill-rule="evenodd" clip-rule="evenodd" d="M2 6.42712C2 5.87484 2.44772 5.42712 3 5.42712H21C21.5523 5.42712 22 5.87484 22 6.42712C22 6.97941 21.5523 7.42712 21 7.42712H3C2.44772 7.42712 2 6.97941 2 6.42712Z" fill="white"/>
<path fill-rule="evenodd" clip-rule="evenodd" d="M8 9.42712C8.55228 9.42712 9 9.87484 9 10.4271C9 11.2228 9.31607 11.9858 9.87868 12.5484C10.4413 13.1111 11.2044 13.4271 12 13.4271C12.7956 13.4271 13.5587 13.1111 14.1213 12.5484C14.6839 11.9858 15 11.2228 15 10.4271C15 9.87484 15.4477 9.42712 16 9.42712C16.5523 9.42712 17 9.87484 17 10.4271C17 11.7532 16.4732 13.025 15.5355 13.9627C14.5979 14.9003 13.3261 15.4271 12 15.4271C10.6739 15.4271 9.40215 14.9003 8.46447 13.9627C7.52678 13.025 7 11.7532 7 10.4271C7 9.87484 7.44772 9.42712 8 9.42712Z" fill="white"/>
</svg>
